<svg width="160" height="160" viewBox="0 0 160 160" fill="none" xmlns="http://www.w3.org/2000/svg">
  <rect width="160" height="160" rx="42" fill="#EAF1FF"/>
  <circle cx="80" cy="58" r="24" fill="#4E7CF5" fill-opacity="0.16"/>
  <path d="M80 88C57.3563 88 39 106.356 39 129V160H121V129C121 106.356 102.644 88 80 88Z" fill="#4E7CF5" fill-opacity="0.16"/>
  <path d="M117 49C117 79.9279 91.9279 105 61 105C56.7631 105 52.636 104.529 48.6662 103.638C65.3762 115.824 88.8998 114.401 104.001 99.2997C120.627 82.674 121.376 56.2244 106.249 38.7308C113.168 41.1655 117 44.9984 117 49Z" fill="#6D73F8" fill-opacity="0.12"/>
  <path d="M80 78C91.0457 78 100 69.0457 100 58C100 46.9543 91.0457 38 80 38C68.9543 38 60 46.9543 60 58C60 69.0457 68.9543 78 80 78Z" fill="#4E7CF5"/>
  <path d="M48 129C48 111.327 62.3269 97 80 97C97.6731 97 112 111.327 112 129V160H48V129Z" fill="#4E7CF5"/>
  <path d="M26 126C26 114.402 35.402 105 47 105H113C124.598 105 134 114.402 134 126V160H26V126Z" fill="#162033" fill-opacity="0.04"/>
  <rect x="33" y="116" width="94" height="12" rx="6" fill="#FFFFFF" fill-opacity="0.56"/>
  <rect x="33" y="134" width="65" height="10" rx="5" fill="#FFFFFF" fill-opacity="0.42"/>
</svg>
