<svg width="160" height="160" viewBox="0 0 160 160" fill="none" xmlns="http://www.w3.org/2000/svg">
  <rect width="160" height="160" rx="42" fill="#FFF1F2"/>
  <circle cx="80" cy="58" r="26" fill="#EC4899" fill-opacity="0.12"/>
  <path d="M80 88C57.3563 88 39 106.356 39 129V160H121V129C121 106.356 102.644 88 80 88Z" fill="#EC4899" fill-opacity="0.12"/>
  <path d="M117 49C117 79.9279 91.9279 105 61 105C56.7631 105 52.636 104.529 48.6662 103.638C65.3762 115.824 88.8998 114.401 104.001 99.2997C120.627 82.674 121.376 56.2244 106.249 38.7308C113.168 41.1655 117 44.9984 117 49Z" fill="#F43F5E" fill-opacity="0.08"/>
  <path d="M48 129C48 111.327 62.3269 97 80 97C97.6731 97 112 111.327 112 129V160H48V129Z" fill="#EC4899" fill-opacity="0.8"/>
  <path d="M50 60C50 40 60 30 80 30C100 30 110 40 110 60V95C110 100 105 105 100 105C95 105 92 100 92 95V70H68V95C68 100 65 105 60 105C55 105 50 100 50 95V60Z" fill="#D946EF" fill-opacity="0.2"/>
  <circle cx="80" cy="58" r="20" fill="#EC4899"/>
  <path d="M56 50C56 36 66 32 80 32C94 32 104 36 104 50C104 60 108 72 108 82C108 84 104 84 102 82C98 80 94 76 94 70C94 66 90 62 80 62C70 62 66 66 66 70C66 76 62 80 58 82C56 84 52 84 52 82C52 72 56 60 56 50Z" fill="#EC4899"/>
  <path d="M26 132C26 120.402 35.402 111 47 111H113C124.598 111 134 120.402 134 132V160H26V132Z" fill="#FFFFFF" fill-opacity="0.25"/>
  <rect x="33" y="122" width="94" height="12" rx="6" fill="#FFFFFF" fill-opacity="0.6"/>
  <rect x="33" y="140" width="65" height="10" rx="5" fill="#FFFFFF" fill-opacity="0.45"/>
</svg>
