<svg width="27" height="25" viewBox="0 0 27 25" fill="none" xmlns="http://www.w3.org/2000/svg">
<path d="M3.32678 7.95257C3.32665 6.63459 3.57364 5.33723 4.04553 4.1772C4.51742 3.01716 5.19941 2.03082 6.03015 1.30689C6.8609 0.582961 7.81434 0.144149 8.80474 0.0299221C9.79513 -0.0843052 10.7914 0.129634 11.704 0.652499C12.6165 1.17536 13.4167 1.99075 14.0326 3.02533C14.6485 4.05991 15.0608 5.28123 15.2324 6.57944C15.4039 7.87764 15.3294 9.21203 15.0154 10.4626C14.7015 11.7131 14.158 12.8406 13.4339 13.7436C14.7992 14.6223 15.9846 15.9245 16.8896 17.5396C17.7947 19.1547 18.3927 21.0353 18.6331 23.022C18.6596 23.243 18.6529 23.4688 18.6135 23.6865C18.5741 23.9042 18.5028 24.1094 18.4036 24.2905C18.3044 24.4716 18.1792 24.6251 18.0353 24.7421C17.8913 24.8591 17.7314 24.9373 17.5647 24.9724C17.3979 25.0074 17.2276 24.9986 17.0634 24.9464C16.8992 24.8942 16.7444 24.7996 16.6078 24.6681C16.4712 24.5365 16.3554 24.3706 16.2672 24.1798C16.179 23.9889 16.1199 23.7769 16.0935 23.5559C15.8365 21.421 15.0138 19.4775 13.7731 18.0745C12.5325 16.6714 10.9552 15.9007 9.32456 15.9007C7.69387 15.9007 6.11659 16.6714 4.87597 18.0745C3.63535 19.4775 2.81266 21.421 2.55563 23.5559C2.52908 23.7769 2.46994 23.9889 2.38159 24.1797C2.29324 24.3705 2.17742 24.5363 2.04073 24.6677C1.90404 24.7992 1.74916 24.8936 1.58493 24.9457C1.42071 24.9978 1.25036 25.0064 1.0836 24.9712C0.91685 24.936 0.756959 24.8576 0.61306 24.7405C0.469161 24.6234 0.344072 24.4698 0.244935 24.2886C0.145799 24.1074 0.0745568 23.902 0.0352759 23.6843C-0.00400497 23.4666 -0.010555 23.2408 0.0159997 23.0197C0.255521 21.0332 0.85328 19.1527 1.75847 17.5382C2.66365 15.9236 3.8495 14.6226 5.21522 13.7459C4.61887 13.0022 4.14367 12.1046 3.8189 11.1082C3.49412 10.1119 3.32664 9.03796 3.32678 7.95257ZM18.7496 4.54474C19.7453 4.54567 20.7193 4.92974 21.5535 5.65035C22.3877 6.37096 23.0462 7.39712 23.449 8.60425C23.8519 9.81139 23.9817 11.1476 23.8228 12.4507C23.6639 13.7537 23.2231 14.9677 22.554 15.945C23.5976 16.6305 24.5249 17.5908 25.2792 18.7673C26.0334 19.9439 26.5989 21.3119 26.9409 22.788C27.0088 23.0744 27.0184 23.3795 26.9686 23.6724C26.9188 23.9653 26.8115 24.2355 26.6575 24.4556C26.5034 24.6758 26.3082 24.8379 26.0917 24.9257C25.8751 25.0134 25.6448 25.0237 25.4243 24.9553C25.2038 24.8877 25.0007 24.7441 24.8355 24.5391C24.6703 24.334 24.5489 24.0748 24.4835 23.7876C24.1759 22.4707 23.6161 21.282 22.8587 20.3375C22.1012 19.393 21.172 18.725 20.1617 18.3987C19.8811 18.3089 19.6314 18.0964 19.453 17.7955C19.2745 17.4947 19.1777 17.1229 19.1781 16.7402V15.9405C19.1779 15.6233 19.2446 15.3123 19.3705 15.0426C19.4964 14.7728 19.6767 14.5551 19.8909 14.4138C20.4105 14.0725 20.8277 13.5083 21.0748 12.8129C21.3219 12.1175 21.3845 11.3318 21.2523 10.5834C21.1201 9.83493 20.8009 9.16773 20.3466 8.69013C19.8922 8.21254 19.3295 7.95261 18.7496 7.95257C18.4088 7.95257 18.0819 7.77305 17.8408 7.4535C17.5998 7.13396 17.4644 6.70056 17.4644 6.24866C17.4644 5.79675 17.5998 5.36335 17.8408 5.04381C18.0819 4.72426 18.4088 4.54474 18.7496 4.54474ZM9.32456 3.4088C8.86814 3.39512 8.41427 3.50246 7.98958 3.72453C7.56489 3.9466 7.17794 4.27891 6.85146 4.70197C6.52498 5.12502 6.26554 5.63029 6.08837 6.1881C5.9112 6.74591 5.81988 7.34502 5.81977 7.95027C5.81966 8.55551 5.91075 9.15469 6.08771 9.71262C6.26466 10.2705 6.52391 10.776 6.85024 11.1993C7.17656 11.6225 7.56338 11.9551 7.98799 12.1774C8.41259 12.3998 8.86643 12.5074 9.32284 12.4941C10.2183 12.4678 11.0705 11.9778 11.6969 11.129C12.3233 10.2802 12.6742 9.14003 12.6744 7.95254C12.6746 6.76505 12.3242 5.62463 11.6981 4.77541C11.072 3.92619 10.22 3.43565 9.32456 3.4088Z" fill="#023EC5"/>
</svg>
