<svg width="25" height="25" viewBox="0 0 25 25" fill="none" xmlns="http://www.w3.org/2000/svg">
<path fill-rule="evenodd" clip-rule="evenodd" d="M7.19697 0C5.28821 0 3.45764 0.676277 2.10794 1.88006C0.75825 3.08384 0 4.71652 0 6.41892V19.9324C0 21.2764 0.598618 22.5654 1.66417 23.5157C2.72971 24.4661 4.17491 25 5.68182 25H22.3485C23.0517 25 23.7261 24.7508 24.2234 24.3073C24.7206 23.8638 25 23.2623 25 22.6351V2.36486C25 1.73766 24.7206 1.13615 24.2234 0.692653C23.7261 0.249155 23.0517 0 22.3485 0H7.19697ZM22.7273 14.8649V2.36486C22.7273 2.27526 22.6874 2.18933 22.6163 2.12598C22.5453 2.06262 22.4489 2.02703 22.3485 2.02703H7.19697C5.89098 2.02703 4.63848 2.48974 3.715 3.31338C2.79153 4.13702 2.27273 5.25412 2.27273 6.41892V15.8784C3.25519 15.2187 4.45209 14.8629 5.68182 14.8649H22.7273ZM22.7273 16.8919H5.68182C4.77767 16.8919 3.91056 17.2122 3.27123 17.7824C2.6319 18.3527 2.27273 19.126 2.27273 19.9324C2.27273 20.7388 2.6319 21.5122 3.27123 22.0824C3.91056 22.6526 4.77767 22.973 5.68182 22.973H22.3485C22.4489 22.973 22.5453 22.9374 22.6163 22.874C22.6874 22.8107 22.7273 22.7247 22.7273 22.6351V16.8919Z" fill="#023EC5"/>
</svg>
