<svg width="50" height="50" viewBox="0 0 50 50" fill="none" xmlns="http://www.w3.org/2000/svg">
<path d="M25 50C38.8071 50 50 38.8071 50 25C50 11.1929 38.8071 0 25 0C11.1929 0 0 11.1929 0 25C0 38.8071 11.1929 50 25 50Z" fill="#1C98F7"/>
<path fill-rule="evenodd" clip-rule="evenodd" d="M25.4375 36.4453C26.5369 36.3685 27.6269 36.1906 28.6938 35.9141C30.0102 36.3156 31.4018 36.4065 32.7594 36.1797C32.8133 36.1727 32.8675 36.1685 32.9219 36.1672C33.4062 36.1672 34.0422 36.4484 34.9687 37.0422V36.0656C34.9689 35.8967 35.014 35.7308 35.0994 35.585C35.1848 35.4392 35.3074 35.3188 35.4547 35.2359C35.8589 35.0068 36.2323 34.7469 36.575 34.4563C37.925 33.3125 38.6875 31.7875 38.6875 30.1719C38.6854 29.6281 38.6026 29.1042 38.4391 28.6C38.8484 27.8375 39.175 27.0406 39.4188 26.2094C40.201 27.3832 40.6205 28.7613 40.625 30.1719C40.625 32.3672 39.6031 34.4141 37.8359 35.9109C37.5406 36.1601 37.2301 36.3907 36.9063 36.6016V38.8844C36.9063 39.6703 36 40.1219 35.3609 39.6547C34.7567 39.2029 34.1309 38.7805 33.4859 38.3891C33.3012 38.2786 33.1091 38.181 32.9109 38.0969C32.3786 38.1771 31.8375 38.2172 31.2875 38.2172C29.0813 38.2172 27.0422 37.5563 25.4375 36.4453ZM13.7719 31.8797C10.9844 29.5156 9.375 26.2953 9.375 22.8438C9.375 15.7922 16.0281 10.1562 24.1516 10.1562C32.275 10.1562 38.9297 15.7922 38.9297 22.8438C38.9297 29.8969 32.275 35.5328 24.1516 35.5328C23.237 35.5328 22.337 35.4625 21.4516 35.3219C21.0688 35.4125 19.5391 36.3219 17.3344 37.9313C16.5359 38.5156 15.4031 37.9516 15.4031 36.9688V33.075C14.8314 32.7162 14.2862 32.3168 13.7719 31.8797ZM21.5047 32.9203C21.5724 32.9203 21.6401 32.9255 21.7078 32.9359C22.5047 33.0703 23.3234 33.1391 24.1516 33.1391C31.0141 33.1391 36.5063 28.4859 36.5063 22.8438C36.5063 17.2031 31.0141 12.55 24.1516 12.55C17.2922 12.55 11.7969 17.2031 11.7969 22.8438C11.7969 25.5719 13.0797 28.1406 15.3484 30.0625C15.9214 30.5458 16.5443 30.9792 17.2172 31.3625C17.5938 31.575 17.8266 31.9719 17.8266 32.4V34.6453C19.5703 33.475 20.7172 32.9203 21.5047 32.9203ZM17.8531 25.2391C16.7828 25.2391 15.9156 24.3797 15.9156 23.3234C15.9156 22.2656 16.7828 21.4078 17.8531 21.4078C18.9234 21.4078 19.7906 22.2656 19.7906 23.3234C19.7906 24.3813 18.9234 25.2391 17.8531 25.2391ZM24.1516 25.2391C23.0812 25.2391 22.2141 24.3797 22.2141 23.3234C22.2141 22.2656 23.0812 21.4078 24.1516 21.4078C25.2219 21.4078 26.0891 22.2656 26.0891 23.3234C26.0891 24.3813 25.2219 25.2391 24.1516 25.2391ZM30.45 25.2391C29.3797 25.2391 28.5125 24.3797 28.5125 23.3234C28.5125 22.2656 29.3797 21.4078 30.45 21.4078C31.5203 21.4078 32.3875 22.2656 32.3875 23.3234C32.3875 24.3813 31.5203 25.2391 30.45 25.2391Z" fill="white"/>
</svg>
