<svg width="40" height="40" viewBox="0 0 40 40" fill="none" xmlns="http://www.w3.org/2000/svg">
<path d="M16.91 5.41345C17.159 4.79797 17.5862 4.27088 18.1367 3.89974C18.6872 3.5286 19.3361 3.33032 20 3.33032C20.664 3.33032 21.3128 3.5286 21.8633 3.89974C22.4138 4.27088 22.841 4.79797 23.09 5.41345C25.555 6.09051 27.7294 7.55843 29.279 9.59156C30.8285 11.6247 31.6674 14.1105 31.6667 16.6668V24.4951L34.72 29.0751C34.8875 29.3261 34.9837 29.6179 34.9983 29.9193C35.0129 30.2206 34.9455 30.5203 34.8031 30.7864C34.6608 31.0524 34.4489 31.2749 34.19 31.4299C33.9312 31.585 33.6351 31.6668 33.3333 31.6668H25.775C25.5743 33.0553 24.8801 34.325 23.8195 35.2434C22.7589 36.1617 21.4029 36.6672 20 36.6672C18.5971 36.6672 17.2411 36.1617 16.1805 35.2434C15.1199 34.325 14.4257 33.0553 14.225 31.6668H6.66667C6.36493 31.6668 6.06884 31.585 5.80999 31.4299C5.55114 31.2749 5.33923 31.0524 5.19688 30.7864C5.05453 30.5203 4.98708 30.2206 5.00172 29.9193C5.01636 29.6179 5.11254 29.3261 5.28001 29.0751L8.33334 24.4951V16.6668C8.33334 11.2935 11.9667 6.76678 16.91 5.41345ZM17.6433 31.6668C17.8155 32.1545 18.1346 32.5769 18.5569 32.8756C18.9791 33.1744 19.4836 33.3348 20.0008 33.3348C20.5181 33.3348 21.0226 33.1744 21.4448 32.8756C21.867 32.5769 22.1862 32.1545 22.3583 31.6668H17.6433ZM20 8.33345C17.7899 8.33345 15.6703 9.21142 14.1074 10.7742C12.5446 12.337 11.6667 14.4566 11.6667 16.6668V25.0001C11.6667 25.3293 11.5693 25.6512 11.3867 25.9251L9.78167 28.3335H30.2167L28.6117 25.9251C28.4296 25.651 28.3328 25.3292 28.3333 25.0001V16.6668C28.3333 14.4566 27.4554 12.337 25.8926 10.7742C24.3298 9.21142 22.2101 8.33345 20 8.33345Z" fill="#023EC5"/>
<circle cx="28.0002" cy="11.3301" r="8" fill="#EF4444"/>
</svg>
