<svg width="6" height="23" viewBox="0 0 6 23" fill="none" xmlns="http://www.w3.org/2000/svg">
<path d="M3.88976 22.2005L3.87326 22.2027L3.76676 22.2411L3.73676 22.2454L3.71576 22.2411L3.60926 22.2027C3.59326 22.199 3.58126 22.2009 3.57326 22.2082L3.56726 22.2191L3.54176 22.6882L3.54926 22.7101L3.56426 22.7243L3.72026 22.8054L3.74276 22.8098L3.76076 22.8054L3.91676 22.7243L3.93476 22.7068L3.94076 22.6882L3.91526 22.2202C3.91126 22.2085 3.90276 22.202 3.88976 22.2005ZM4.28726 22.0767L4.26776 22.0789L3.99026 22.1808L3.97526 22.1917L3.97076 22.2038L3.99776 22.675L4.00526 22.6882L4.01726 22.6958L4.31876 22.7978C4.33776 22.8014 4.35226 22.7985 4.36226 22.789L4.36826 22.7737L4.31726 22.1008C4.31226 22.0876 4.30226 22.0796 4.28726 22.0767ZM3.21476 22.0789C3.20815 22.0759 3.20025 22.075 3.1927 22.0762C3.18516 22.0774 3.17855 22.0807 3.17426 22.0854L3.16526 22.1008L3.11426 22.7737C3.11526 22.7868 3.12376 22.7956 3.13976 22.8L3.16226 22.7978L3.46376 22.6958L3.47876 22.6871L3.48476 22.675L3.51026 22.2038L3.50576 22.1906L3.49076 22.1797L3.21476 22.0789Z" fill="black" fill-opacity="0.7"/>
<path d="M3 15.3426C3.79565 15.3426 4.55871 15.5735 5.12132 15.9846C5.68393 16.3956 6 16.9531 6 17.5344C6 18.1157 5.68393 18.6732 5.12132 19.0842C4.55871 19.4953 3.79565 19.7262 3 19.7262C2.20435 19.7262 1.44129 19.4953 0.87868 19.0842C0.316071 18.6732 0 18.1157 0 17.5344C0 16.9531 0.316071 16.3956 0.87868 15.9846C1.44129 15.5735 2.20435 15.3426 3 15.3426ZM3 7.6713C3.79565 7.6713 4.55871 7.90222 5.12132 8.31326C5.68393 8.72431 6 9.2818 6 9.8631C6 10.4444 5.68393 11.0019 5.12132 11.4129C4.55871 11.824 3.79565 12.0549 3 12.0549C2.20435 12.0549 1.44129 11.824 0.87868 11.4129C0.316071 11.0019 0 10.4444 0 9.8631C0 9.2818 0.316071 8.72431 0.87868 8.31326C1.44129 7.90222 2.20435 7.6713 3 7.6713ZM3 0C3.79565 0 4.55871 0.230921 5.12132 0.641963C5.68393 1.05301 6 1.6105 6 2.1918C6 2.7731 5.68393 3.3306 5.12132 3.74164C4.55871 4.15268 3.79565 4.3836 3 4.3836C2.20435 4.3836 1.44129 4.15268 0.87868 3.74164C0.316071 3.3306 0 2.7731 0 2.1918C0 1.6105 0.316071 1.05301 0.87868 0.641963C1.44129 0.230921 2.20435 0 3 0Z" fill="black" fill-opacity="0.7"/>
</svg>
